<?xml version="1.0" encoding="UTF-8"?>
<!DOCTYPE svg PUBLIC "-//W3C//DTD SVG 1.1//EN" "http://www.w3.org/Graphics/SVG/1.1/DTD/svg11.dtd">
<!-- Creator: CorelDRAW -->
<svg xmlns="http://www.w3.org/2000/svg" xml:space="preserve" width="253.894mm" height="61.9619mm" version="1.1" style="shape-rendering:geometricPrecision; text-rendering:geometricPrecision; image-rendering:optimizeQuality; fill-rule:evenodd; clip-rule:evenodd"
viewBox="0 0 25048.17 6112.92"
 xmlns:xlink="http://www.w3.org/1999/xlink"
 xmlns:xodm="http://www.corel.com/coreldraw/odm/2003">
 <defs>
  <style type="text/css">
   <![CDATA[
    .fil0 {fill:#E8E4E1;fill-rule:nonzero}
   ]]>
  </style>
 </defs>
 <g id="Capa_x0020_1">
  <metadata id="CorelCorpID_0Corel-Layer"/>
  <g id="_105553295202080">
   <path class="fil0" d="M14633.29 1609.1c28.51,-15.73 64.38,-5.36 80.11,23.15 15.73,28.51 5.37,64.38 -23.14,80.11l-2061.09 1140.45c-264.46,145.96 -454.85,-89.62 -454.85,-343.89 0,-436.27 119.9,-1742.9 120.24,-1746.67l0.05 -0.46 -0.05 0c0.12,-1.16 34.26,-407.48 533.55,-214.2 425.5,164.71 783.79,316.29 784.83,316.73 30.05,12.66 44.14,47.29 31.49,77.33 -12.66,30.04 -47.29,44.14 -77.34,31.48 -1.03,-0.42 -355.18,-150.27 -781.58,-315.32 -352.64,-136.51 -373.27,114.86 -373.33,115.57l-0.04 0c-1.84,20.13 -119.29,1302.66 -119.29,1735.56 0,329.63 254.7,248.45 284.19,237.96l2056.26 -1137.79z"/>
   <path class="fil0" d="M3053.25 481.66c-16.5,-28.13 -7.06,-64.31 21.07,-80.8 28.13,-16.5 64.3,-7.06 80.8,21.06l740.78 1258.38c15.94,23.77 342.95,526.58 -402.66,765.18 -672.96,215.35 -3207.53,1055.6 -3214.83,1058.03 -345.72,113.89 -337.33,-300.63 -149.58,-570.98 338.1,-486.88 1714.3,-2399.79 1718.26,-2405.31 19.04,-26.46 55.95,-32.48 82.42,-13.43 26.47,19.05 32.48,55.96 13.43,82.43 -3.93,5.47 -1367.95,1901.46 -1716.87,2403.91 -249.02,358.58 -41.99,405.65 24.01,387.97 160.69,-53.26 2528.88,-838.12 3207.05,-1055.15 611.38,-195.64 340.72,-586.73 339.96,-587.85l-1.85 -3.01 -741.98 -1260.43z"/>
   <path class="fil0" d="M4613.22 2271.69c-32.35,4.34 -62.1,-18.36 -66.44,-50.71 -4.35,-32.35 18.35,-62.1 50.7,-66.44 608.17,-83.84 1088.94,-148.48 1144.05,-155.88 65.91,-20.17 747.8,-208.57 468.19,733.22 -230.86,777.6 -522.59,1631.89 -587.19,1819.67 -72.15,209.81 -346.94,378.1 -555.49,434.62l-2456.43 665.92c-61.43,10.41 -412.98,157.01 -719.15,-455.32 -297.63,-595.25 -697.77,-1723.22 -716.74,-1776.84 -6.27,-15.15 -278.11,-679.83 455.66,-826.06 32.09,-6.39 63.3,14.44 69.69,46.54 6.39,32.08 -14.45,63.29 -46.54,69.68 -598.92,119.36 -369.56,664.18 -368.92,665.75l0.93 2.56c1.18,3.35 411.4,1165.38 711.5,1765.58 121.93,243.86 282.74,461.94 575.4,395.24l2449.15 -663.84c162.39,-44.02 439.39,-216.82 492.42,-371.2 69.92,-203.49 354.44,-1038.29 582.26,-1805.64 228.9,-771 -322.12,-586.26 -323.69,-585.76 -3.34,1.07 -6.82,1.84 -10.42,2.32 -1.42,0.19 -489.41,65.69 -1148.93,156.6z"/>
   <path class="fil0" d="M9392.57 5121.01c32.73,0 59.27,26.53 59.27,59.26 0,32.73 -26.54,59.27 -59.27,59.27 -117.51,0 -223.91,-47.64 -300.92,-124.65 -77.01,-77.01 -124.65,-183.4 -124.65,-300.92 0,-117.51 47.64,-223.91 124.65,-300.92 77.01,-77.01 183.41,-124.64 300.92,-124.64 117.51,0 223.91,47.63 300.92,124.65 77.01,77 124.65,183.4 124.65,300.91 0,49.86 -8.68,97.89 -24.61,142.62 -16.49,46.28 -40.79,88.9 -71.32,126.26 -20.58,25.32 -57.8,29.15 -83.12,8.57 -25.32,-20.58 -29.15,-57.8 -8.56,-83.12 21.97,-26.89 39.49,-57.64 51.4,-91.07 11.44,-32.11 17.67,-66.87 17.67,-103.26 0,-84.79 -34.36,-161.55 -89.93,-217.1 -55.55,-55.55 -132.32,-89.93 -217.1,-89.93 -84.79,0 -161.55,34.37 -217.11,89.93 -55.55,55.55 -89.92,132.32 -89.92,217.1 0,84.79 34.36,161.56 89.93,217.11 55.55,55.55 132.32,89.93 217.1,89.93z"/>
   <path class="fil0" d="M4117.89 3904.94c-16.72,28.04 -53.01,37.22 -81.05,20.5 -28.04,-16.71 -37.22,-53.01 -20.5,-81.05l1602.45 -2687.74c54.4,-91.24 121.66,-182.3 198.8,-260.51 97.64,-98.99 211.5,-177.88 336.23,-212.24 128.83,-35.5 267.13,-23.93 408.56,60.39 50.49,30.11 101.21,69.5 151.79,119.38 176.97,174.53 275.02,344.74 320.24,497.17 60.32,203.31 27.1,376.39 -39.62,489.13 -50.53,85.39 -117.7,143.73 -190.94,174.96 -49.01,20.91 -100.76,29.6 -152.2,26.11 -51.1,-3.47 -101.6,-19.08 -148.45,-46.8 -72.07,-42.65 -135.07,-113.72 -177.34,-212.89 -31.68,-74.26 -46.72,-137.84 -53.6,-191.24 -6.75,-52.36 -5.38,-95.14 -4.32,-128.32 0.32,-9.97 -2.88,-21.83 -9.45,-30.76 -2.16,-2.94 -4.53,-5.11 -6.82,-5.77 -3.1,-0.88 -8.39,0.06 -16.52,3.7 -29.04,13.04 -67.69,50.16 -117.39,126.26 -42.34,64.84 -159.85,260.23 -312.73,517.57 -155.77,262.21 -344.8,582.84 -528.38,895.08 -16.56,28.12 -52.78,37.49 -80.9,20.93 -28.12,-16.55 -37.5,-52.78 -20.94,-80.9 186.77,-317.65 376.86,-640.08 528.68,-895.66 154.72,-260.46 273.3,-457.67 315.21,-521.82 63.37,-97.03 120.32,-147.81 168.34,-169.35 35.88,-16.11 68.57,-17.55 97.2,-9.4 29.44,8.38 52.59,26.67 69.48,49.61 22.41,30.45 33.36,70.57 32.28,104.19 -0.9,27.95 -2.04,64.01 3.81,109.43 5.72,44.41 18.37,97.6 45.14,160.38 31.83,74.63 77.27,126.96 128.24,157.12 30.64,18.14 63.49,28.34 96.55,30.58 32.73,2.22 66.06,-3.49 98.04,-17.13 50.88,-21.69 98.34,-63.58 135.19,-125.85 52.56,-88.81 77.91,-227.94 28.24,-395.36 -40.07,-135.09 -128.69,-287.63 -290.04,-446.75 -43.68,-43.07 -86.86,-76.73 -129.32,-102.05 -110.51,-65.89 -217.51,-75.24 -316.42,-47.98 -103.02,28.38 -199.4,95.91 -283.62,181.3 -70.15,71.13 -131.58,154.37 -181.47,238.04l-1602.45 2687.74z"/>
   <path class="fil0" d="M4440.08 919.99c-21.99,24.16 -59.42,25.93 -83.58,3.94 -24.16,-21.99 -25.93,-59.42 -3.94,-83.58 39.68,-43.51 88.26,-78.76 142.82,-102.87 52.63,-23.24 110.72,-36.15 171.68,-36.15 117.51,0 223.91,47.64 300.92,124.64 77.01,77.02 124.65,183.41 124.65,300.93 0,117.51 -47.64,223.91 -124.65,300.91 -77.01,77.02 -183.41,124.65 -300.92,124.65 -117.51,0 -223.91,-47.63 -300.92,-124.65 -77.01,-77 -124.65,-183.4 -124.65,-300.91 0,-23.66 2.06,-47.34 6,-70.82 3.88,-23.12 9.84,-46.08 17.66,-68.64 10.62,-30.81 44.2,-47.19 75.02,-36.57 30.81,10.61 47.19,44.2 36.58,75.01 -5.4,15.53 -9.63,32.11 -12.57,49.64 -2.72,16.24 -4.14,33.4 -4.14,51.37 0,84.79 34.36,161.55 89.92,217.1 55.56,55.55 132.33,89.93 217.11,89.93 84.79,0 161.55,-34.37 217.1,-89.93 55.56,-55.55 89.93,-132.32 89.93,-217.1 0,-84.79 -34.36,-161.56 -89.93,-217.11 -55.55,-55.55 -132.32,-89.93 -217.1,-89.93 -44.25,0 -86.2,9.27 -123.99,25.97 -39.37,17.39 -74.41,42.81 -103,74.16z"/>
   <path class="fil0" d="M3415.91 3247.94c0,-32.73 26.54,-59.27 59.27,-59.27 32.73,0 59.27,26.54 59.27,59.27 0,117.51 -47.64,223.9 -124.65,300.91 -77.01,77.01 -183.41,124.65 -300.92,124.65 -117.51,0 -223.91,-47.64 -300.92,-124.64 -77.01,-77.02 -124.65,-183.41 -124.65,-300.92 0,-117.52 47.64,-223.91 124.65,-300.92 77.01,-77.01 183.41,-124.65 300.92,-124.65 48.34,0 95.28,8.33 139.41,23.65 45.44,15.78 87.34,38.99 124.21,68.15 25.57,20.19 29.92,57.31 9.73,82.88 -20.2,25.57 -57.32,29.92 -82.89,9.73 -26.66,-21.09 -56.85,-37.83 -89.48,-49.17 -31.16,-10.81 -65.12,-16.7 -100.97,-16.7 -84.79,0 -161.55,34.37 -217.11,89.93 -55.55,55.55 -89.92,132.32 -89.92,217.11 0,84.79 34.36,161.55 89.93,217.1 55.55,55.55 132.32,89.93 217.1,89.93 84.79,0 161.55,-34.37 217.1,-89.93 55.56,-55.55 89.93,-132.32 89.93,-217.1z"/>
   <path class="fil0" d="M7768.43 775.42c-8.18,-31.69 10.88,-64.01 42.56,-72.2 31.69,-8.18 64.02,10.87 72.2,42.56l783.31 3029.55c26.47,102.38 43.8,214.21 45.15,324.77 1.7,138.86 -22.34,275.17 -85.68,388.06 -65.46,116.68 -170.94,206.93 -330.18,248.1 -56.41,14.59 -120.13,22.86 -191.83,23.73 -248.63,3.03 -438.51,-46.92 -578.48,-121.9 -186.87,-100.1 -286.57,-245.62 -319.81,-372.56 -25.09,-95.72 -19.32,-184.26 9.94,-258.14 19.73,-49.82 49.97,-92.84 88.57,-126.9 38.45,-33.92 85.12,-58.86 137.86,-72.67 80.76,-21.16 175.37,-15.95 275.42,23.68 75.01,29.7 130.93,63.84 173.9,96.64 43.04,32.87 71.96,63.37 94.38,87.01 6.81,7.17 17.44,13.19 28.42,14.8 3.87,0.57 7.13,0.5 8.96,-0.53 2.69,-1.52 5.69,-5.94 8.86,-14.4 11.3,-30.19 12.21,-83.89 -6.85,-172.43 -15.89,-73.81 -72.23,-295.05 -148,-586.19 -71.18,-273.51 -167.53,-638.6 -264.72,-1005.26 -8.34,-31.59 10.52,-63.97 42.12,-72.31 31.59,-8.33 63.97,10.53 72.31,42.12 90.03,339.64 184.1,696.35 264.61,1005.7 75.93,291.72 132.59,514.44 149.13,591.24 24.47,113.61 20.61,189.67 2.3,238.59 -13.73,36.71 -35.77,60.97 -61.82,75.65 -26.9,15.17 -56.13,18.84 -84.08,14.75 -37.38,-5.49 -73.64,-25.98 -96.85,-50.46 -19.66,-20.74 -45.03,-47.49 -80.33,-74.45 -35.4,-27.02 -81.98,-55.36 -145.48,-80.49 -75.6,-29.94 -144.99,-34.43 -202.53,-19.36 -34.37,9.01 -64.67,25.14 -89.47,47.03 -24.65,21.76 -44.02,49.35 -56.72,81.39 -20.42,51.58 -24.03,115 -5.62,185.26 26.09,99.61 107.14,215.33 261.14,297.81 124.39,66.63 295.24,111 521.74,108.25 60.65,-0.74 114.92,-7.83 163.31,-20.33 124.75,-32.26 206.65,-101.66 256.78,-191 52.25,-93.12 72.03,-209.23 70.57,-329.31 -1.2,-99.21 -17.25,-201.44 -41.75,-296.23l-783.32 -3029.55z"/>
   <path class="fil0" d="M232.94 3902.05c-16.11,-28.38 -6.16,-64.46 22.23,-80.57 28.38,-16.1 64.46,-6.16 80.57,22.23l1157.35 2046.55c22.37,27.45 195.28,223.47 366.09,-54.69 226.81,-369.34 804.95,-1538.56 806.61,-1541.94l1.1 -2.12c10.85,-24.02 91.37,-227.17 -258.84,-291.4 -443.61,-81.35 -829.83,-139.91 -830.94,-140.08 -32.35,-4.85 -54.64,-35.02 -49.77,-67.37 4.85,-32.36 35.02,-54.65 67.37,-49.78 1.1,0.17 379.74,57.59 834.64,141.02 495.02,90.78 362.49,418 344.38,457.82 -0.57,1.43 -1.2,2.84 -1.89,4.24 -1.67,3.38 -582.24,1177.49 -811.72,1551.2 -265.55,432.44 -545.39,84.86 -562.19,63.32 -2,-2.48 -3.83,-5.15 -5.45,-8.01l-1159.54 -2050.41z"/>
   <path class="fil0" d="M8510.41 5349.55c32.22,-5.25 62.6,16.63 67.84,48.85 5.25,32.22 -16.63,62.6 -48.85,67.84l-1278.51 208.55c-157.4,25.68 -320.86,-60.04 -430.25,-169.44 -155.26,-155.25 -402.55,-565.9 -423.94,-601.61 -24.48,-33.3 -92.06,-160.35 -8,-474.07 89.49,-333.97 658.17,-1614.42 695.71,-1698.8 10.06,-33.46 68.73,-184.87 307.54,-184.87 220.11,0 1258.06,62.01 1261.05,62.18 15.05,0.89 28.45,7.34 38.34,17.23l217.68 217.5c86.18,86.17 467.88,495.81 468.97,496.98 22.25,23.91 20.9,61.34 -3.01,83.58 -23.91,22.25 -61.34,20.9 -83.58,-3.01 -1.09,-1.15 -376.45,-404.01 -466.2,-493.74l-201.8 -201.79c-152.04,-8.99 -1029.49,-60.38 -1231.46,-60.38 -116.49,0 -161.33,28.8 -207.31,121.72 -94.23,190.49 -642.72,1528.96 -681.58,1673.97 -32.08,119.75 -73.76,267.75 -6.48,380.31 142.08,238.44 418.33,769.25 743.09,716.29l1270.74 -207.29z"/>
  </g>
  <g id="_105553295377600">
   <path class="fil0" d="M7632.77 2108.99c-15.31,28.84 -51.09,39.81 -79.93,24.51 -28.84,-15.3 -39.81,-51.09 -24.51,-79.93l896.7 -1691.13c19.03,-35.91 26.09,-51.21 54.51,-81.86 62.97,-67.91 238.52,-229.23 514.3,-267 278.72,-38.19 849.37,14.47 1031.54,33.05 47.04,4.81 92.75,5.8 138.2,20.62 94.79,30.91 255.56,122.81 462.83,390 315.27,406.41 1327.51,2244.57 1382.46,2344.47 26.83,45.05 150.13,224.84 -56.13,496.58 -197.67,260.43 -1200.93,1430.25 -1203.82,1433.62 -9.81,11.45 -23.05,18.23 -36.9,20.13l-452.41 62.12c-180.28,24.7 -1004.84,108.17 -1007.22,108.41 -32.49,3.27 -61.49,-20.44 -64.76,-52.93 -3.27,-32.5 20.44,-61.49 52.93,-64.76 2.35,-0.24 817.45,-82.74 1002.96,-108.17l430.3 -58.96c124.03,-144.76 1000.23,-1168.35 1184.49,-1411.14 97.76,-128.81 124.92,-226.23 49.45,-363.57 -3.04,-5.52 -1056.09,-1922.28 -1374.85,-2333.19 -169.37,-218.36 -290.29,-304.9 -363.51,-338.86 -48.74,-22.6 -102.96,-21.41 -156.6,-26.88 -179.15,-18.29 -735.61,-69.74 -1002.88,-33.12 -221.89,30.4 -366.68,150.86 -428.6,213.59 -30.74,31.14 -35.71,42.81 -55.9,80.87l-892.65 1683.54z"/>
   <path class="fil0" d="M15103.26 4544.37c-4.22,32.36 -33.87,55.16 -66.22,50.94 -32.35,-4.21 -55.16,-33.86 -50.94,-66.21l117.62 -904.5 88.63 -681.55c12.53,-96.39 15.73,-199.79 4.58,-299.36 -13.34,-119.16 -47.3,-231.82 -110.67,-317.83 -60.86,-82.6 -150.69,-141.44 -278.26,-158.04 -48.81,-6.34 -103.58,-6.58 -164.82,0.28 -225.07,25.2 -389.05,90.26 -504.15,171.65 -142.62,100.84 -208.76,225.65 -222.36,327.73 -9.61,72.07 1.78,134.56 28.36,183.15 16.52,30.17 39.17,55.17 66.42,73.78 27.36,18.69 59.37,30.98 94.48,35.65 59.05,7.87 127.35,-5.13 198.61,-44.13 59.67,-32.65 102.42,-66.56 134.34,-97.87 31.73,-31.13 53.55,-60.73 70.47,-83.7 20.03,-27.18 53.55,-52.03 90.09,-62.11 27.35,-7.55 56.84,-7.53 85.32,4.15 27.43,11.27 52.19,32.67 70.49,67.66 24.39,46.63 37.75,121.68 27.53,236.9 -27.41,309.2 -411.57,3072.94 -412.68,3080.89 -4.48,32.35 -34.33,54.95 -66.68,50.47 -32.35,-4.47 -54.95,-34.32 -50.47,-66.68 1.1,-7.93 384.2,-2763.9 411.75,-3074.87 8.04,-90.74 0.64,-143.87 -14.1,-172.08 -4.06,-7.76 -7.68,-11.74 -10.76,-13 -2.04,-0.84 -5.26,-0.53 -8.92,0.47 -10.58,2.92 -20.33,10.16 -26.18,18.11 -19.36,26.26 -44.32,60.14 -82.98,98.05 -38.47,37.74 -89.72,78.46 -160.73,117.32 -94.47,51.71 -187.7,68.59 -270.39,57.56 -54.15,-7.22 -103.57,-26.2 -145.88,-55.1 -42.4,-28.97 -77.69,-67.92 -103.45,-114.99 -38.19,-69.77 -54.87,-156.93 -41.8,-254.92 17.34,-130.09 98.32,-286.81 271.44,-409.23 129.76,-91.75 312.12,-164.81 559.26,-192.49 70.31,-7.87 134.53,-7.42 193.07,0.19 163.29,21.23 279.12,97.71 358.37,205.27 76.75,104.16 117.43,236.59 132.9,374.78 12.19,108.88 8.68,222.05 -5.04,327.61l-206.25 1586.04z"/>
   <path class="fil0" d="M9377.8 4899.3c-28.51,15.73 -64.38,5.36 -80.11,-23.15 -15.73,-28.51 -5.37,-64.38 23.14,-80.11l2061.09 -1140.46c264.46,-145.95 454.85,89.63 454.85,343.9 0,436.26 -119.9,1742.9 -120.24,1746.67l-0.05 0.46 0.05 0c-0.11,1.16 -34.26,407.47 -533.55,214.19 -425.5,-164.7 -783.79,-316.28 -784.83,-316.72 -30.04,-12.66 -44.14,-47.29 -31.48,-77.33 12.65,-30.05 47.28,-44.14 77.33,-31.49 1.03,0.43 355.18,150.27 781.58,315.32 352.64,136.51 373.27,-114.85 373.33,-115.56l0.04 0c1.84,-20.13 119.29,-1302.66 119.29,-1735.56 0,-329.64 -254.7,-248.45 -284.19,-237.96l-2056.26 1137.79z"/>
   <path class="fil0" d="M21994.92 5866.96c16.5,28.13 7.06,64.3 -21.07,80.8 -28.13,16.5 -64.3,7.06 -80.8,-21.06l-740.78 -1258.39c-15.94,-23.76 -342.95,-526.57 402.66,-765.17 672.96,-215.35 3207.53,-1055.61 3214.83,-1058.03 345.72,-113.89 337.33,300.63 149.58,570.98 -338.1,486.88 -1714.3,2399.78 -1718.26,2405.3 -19.04,26.47 -55.95,32.48 -82.42,13.44 -26.47,-19.05 -32.48,-55.96 -13.43,-82.43 3.93,-5.47 1367.95,-1901.46 1716.87,-2403.91 249.02,-358.58 41.99,-405.65 -24.01,-387.97 -160.69,53.26 -2528.88,838.12 -3207.05,1055.14 -611.38,195.64 -340.72,586.74 -339.96,587.86l1.85 3.01 741.98 1260.43z"/>
   <path class="fil0" d="M20434.95 4076.93c32.35,-4.34 62.1,18.36 66.44,50.71 4.35,32.35 -18.35,62.1 -50.7,66.44 -608.17,83.83 -1088.94,148.48 -1144.05,155.88 -65.91,20.16 -747.8,208.57 -468.19,-733.22 230.86,-777.6 522.59,-1631.9 587.19,-1819.67 72.15,-209.81 346.94,-378.1 555.49,-434.62l2456.43 -665.93c61.43,-10.4 412.98,-157 719.15,455.33 297.63,595.24 697.77,1723.21 716.74,1776.84 6.27,15.15 278.11,679.82 -455.66,826.06 -32.09,6.39 -63.3,-14.44 -69.69,-46.54 -6.39,-32.09 14.45,-63.3 46.54,-69.69 598.92,-119.35 369.56,-664.18 368.92,-665.74l-0.93 -2.56c-1.18,-3.36 -411.4,-1165.38 -711.5,-1765.58 -121.93,-243.86 -282.74,-461.94 -575.4,-395.24l-2449.15 663.84c-162.39,44.02 -439.39,216.82 -492.42,371.2 -69.92,203.49 -354.44,1038.29 -582.26,1805.63 -228.9,771 322.12,586.27 323.69,585.77 3.34,-1.07 6.82,-1.85 10.42,-2.32 1.42,-0.2 489.41,-65.69 1148.93,-156.6z"/>
   <path class="fil0" d="M15655.6 1227.61c-32.73,0 -59.27,-26.54 -59.27,-59.27 0,-32.73 26.54,-59.27 59.27,-59.27 117.51,0 223.91,47.64 300.92,124.66 77.01,77 124.65,183.4 124.65,300.91 0,117.52 -47.64,223.91 -124.65,300.93 -77.01,77 -183.41,124.64 -300.92,124.64 -117.51,0 -223.91,-47.64 -300.92,-124.65 -77.01,-77.01 -124.65,-183.4 -124.65,-300.92 0,-49.85 8.68,-97.88 24.61,-142.61 16.49,-46.29 40.79,-88.91 71.32,-126.27 20.58,-25.32 57.8,-29.15 83.12,-8.56 25.32,20.58 29.15,57.79 8.56,83.11 -21.97,26.9 -39.49,57.64 -51.4,91.08 -11.44,32.11 -17.67,66.87 -17.67,103.25 0,84.79 34.36,161.56 89.93,217.11 55.55,55.55 132.32,89.93 217.1,89.93 84.79,0 161.55,-34.37 217.11,-89.93 55.55,-55.55 89.92,-132.32 89.92,-217.11 0,-84.79 -34.36,-161.55 -89.93,-217.1 -55.55,-55.55 -132.32,-89.93 -217.1,-89.93z"/>
   <path class="fil0" d="M20930.28 2443.67c16.72,-28.04 53.01,-37.21 81.05,-20.5 28.04,16.72 37.22,53.01 20.5,81.05l-1602.45 2687.74c-54.4,91.25 -121.66,182.3 -198.8,260.52 -97.64,98.99 -211.5,177.87 -336.23,212.24 -128.83,35.5 -267.13,23.93 -408.56,-60.39 -50.49,-30.11 -101.21,-69.51 -151.79,-119.39 -176.97,-174.53 -275.02,-344.73 -320.24,-497.17 -60.32,-203.31 -27.1,-376.38 39.62,-489.12 50.53,-85.39 117.7,-143.73 190.94,-174.96 49.01,-20.91 100.76,-29.6 152.2,-26.11 51.1,3.46 101.6,19.08 148.45,46.8 72.07,42.65 135.07,113.72 177.34,212.88 31.68,74.26 46.72,137.85 53.6,191.24 6.75,52.37 5.38,95.14 4.32,128.33 -0.32,9.97 2.88,21.83 9.45,30.76 2.16,2.94 4.53,5.11 6.82,5.76 3.1,0.89 8.39,-0.05 16.52,-3.7 29.04,-13.03 67.69,-50.15 117.39,-126.26 42.34,-64.83 159.85,-260.22 312.73,-517.56 155.77,-262.22 344.8,-582.84 528.38,-895.08 16.56,-28.12 52.78,-37.5 80.9,-20.93 28.12,16.55 37.5,52.78 20.94,80.9 -186.77,317.65 -376.86,640.08 -528.68,895.66 -154.72,260.45 -273.3,457.67 -315.21,521.82 -63.37,97.03 -120.32,147.8 -168.34,169.35 -35.88,16.1 -68.57,17.55 -97.2,9.4 -29.44,-8.39 -52.59,-26.67 -69.48,-49.62 -22.41,-30.44 -33.36,-70.56 -32.28,-104.18 0.9,-27.96 2.04,-64.01 -3.81,-109.44 -5.72,-44.4 -18.37,-97.59 -45.14,-160.37 -31.83,-74.63 -77.27,-126.96 -128.24,-157.13 -30.64,-18.14 -63.49,-28.33 -96.55,-30.58 -32.73,-2.21 -66.06,3.49 -98.04,17.14 -50.88,21.68 -98.34,63.58 -135.19,125.84 -52.56,88.82 -77.91,227.95 -28.24,395.37 40.07,135.09 128.69,287.62 290.04,446.75 43.68,43.07 86.86,76.72 129.32,102.05 110.51,65.89 217.51,75.23 316.42,47.98 103.02,-28.38 199.4,-95.91 283.62,-181.3 70.15,-71.13 131.58,-154.37 181.47,-238.05l1602.45 -2687.74z"/>
   <path class="fil0" d="M20608.09 5428.63c21.99,-24.17 59.42,-25.93 83.58,-3.94 24.16,21.99 25.93,59.41 3.94,83.58 -39.68,43.51 -88.26,78.76 -142.82,102.86 -52.63,23.24 -110.72,36.16 -171.68,36.16 -117.51,0 -223.91,-47.64 -300.92,-124.65 -77.01,-77.01 -124.65,-183.41 -124.65,-300.92 0,-117.51 47.64,-223.91 124.65,-300.92 77.01,-77.01 183.41,-124.65 300.92,-124.65 117.51,0 223.91,47.64 300.92,124.65 77.01,77.01 124.65,183.41 124.65,300.92 0,23.66 -2.06,47.34 -6,70.82 -3.88,23.12 -9.84,46.07 -17.66,68.63 -10.62,30.82 -44.2,47.2 -75.02,36.58 -30.81,-10.61 -47.19,-44.2 -36.58,-75.01 5.4,-15.54 9.63,-32.12 12.57,-49.64 2.72,-16.25 4.14,-33.4 4.14,-51.37 0,-84.79 -34.36,-161.55 -89.92,-217.1 -55.56,-55.56 -132.33,-89.93 -217.11,-89.93 -84.79,0 -161.55,34.36 -217.1,89.93 -55.56,55.55 -89.93,132.32 -89.93,217.1 0,84.79 34.36,161.55 89.93,217.11 55.55,55.55 132.32,89.92 217.1,89.92 44.25,0 86.2,-9.27 123.99,-25.96 39.37,-17.39 74.41,-42.81 103,-74.16z"/>
   <path class="fil0" d="M21632.26 3100.68c0,32.73 -26.54,59.27 -59.27,59.27 -32.73,0 -59.27,-26.54 -59.27,-59.27 0,-117.51 47.64,-223.91 124.65,-300.91 77.01,-77.02 183.41,-124.65 300.92,-124.65 117.51,0 223.91,47.63 300.92,124.64 77.01,77.01 124.65,183.41 124.65,300.92 0,117.51 -47.64,223.91 -124.65,300.92 -77.01,77.01 -183.41,124.65 -300.92,124.65 -48.34,0 -95.28,-8.33 -139.41,-23.65 -45.44,-15.78 -87.34,-38.99 -124.21,-68.15 -25.57,-20.19 -29.92,-57.31 -9.73,-82.88 20.2,-25.57 57.32,-29.92 82.89,-9.73 26.66,21.08 56.85,37.83 89.48,49.16 31.16,10.82 65.12,16.7 100.97,16.7 84.79,0 161.55,-34.36 217.11,-89.92 55.55,-55.56 89.92,-132.33 89.92,-217.11 0,-84.79 -34.36,-161.55 -89.93,-217.1 -55.55,-55.55 -132.32,-89.93 -217.1,-89.93 -84.79,0 -161.55,34.37 -217.1,89.93 -55.56,55.55 -89.93,132.32 -89.93,217.1z"/>
   <path class="fil0" d="M17279.74 5573.2c8.18,31.69 -10.88,64.01 -42.56,72.2 -31.69,8.18 -64.02,-10.88 -72.2,-42.57l-783.31 -3029.55c-26.47,-102.38 -43.8,-214.21 -45.15,-324.76 -1.7,-138.86 22.34,-275.18 85.68,-388.06 65.46,-116.68 170.94,-206.93 330.18,-248.1 56.41,-14.59 120.13,-22.86 191.83,-23.74 248.63,-3.02 438.51,46.93 578.48,121.91 186.87,100.1 286.57,245.61 319.81,372.56 25.09,95.73 19.32,184.27 -9.94,258.15 -19.73,49.82 -49.97,92.84 -88.57,126.89 -38.45,33.93 -85.12,58.86 -137.86,72.68 -80.76,21.16 -175.37,15.94 -275.42,-23.68 -75.01,-29.71 -130.93,-63.85 -173.9,-96.65 -43.04,-32.87 -71.96,-63.36 -94.38,-87 -6.81,-7.18 -17.44,-13.19 -28.42,-14.8 -3.87,-0.57 -7.13,-0.5 -8.96,0.53 -2.69,1.51 -5.69,5.93 -8.86,14.4 -11.3,30.18 -12.21,83.89 6.85,172.43 15.89,73.81 72.23,295.05 148,586.19 71.18,273.5 167.53,638.6 264.72,1005.26 8.34,31.59 -10.52,63.96 -42.12,72.3 -31.59,8.34 -63.97,-10.52 -72.31,-42.11 -90.03,-339.64 -184.1,-696.35 -264.61,-1005.7 -75.93,-291.72 -132.59,-514.45 -149.13,-591.24 -24.47,-113.61 -20.61,-189.67 -2.3,-238.59 13.73,-36.72 35.77,-60.97 61.82,-75.65 26.9,-15.17 56.13,-18.85 84.08,-14.75 37.38,5.49 73.64,25.98 96.85,50.46 19.66,20.74 45.03,47.48 80.33,74.45 35.4,27.01 81.98,55.35 145.48,80.48 75.6,29.95 144.99,34.44 202.53,19.37 34.37,-9.01 64.67,-25.15 89.47,-47.04 24.65,-21.75 44.02,-49.34 56.72,-81.38 20.42,-51.58 24.03,-115 5.62,-185.26 -26.09,-99.61 -107.14,-215.33 -261.14,-297.81 -124.39,-66.63 -295.24,-111 -521.74,-108.25 -60.65,0.74 -114.92,7.82 -163.31,20.33 -124.75,32.25 -206.65,101.66 -256.78,190.99 -52.25,93.13 -72.03,209.23 -70.57,329.32 1.2,99.21 17.25,201.44 41.75,296.23l783.32 3029.55z"/>
   <path class="fil0" d="M24815.23 2446.56c16.11,28.39 6.16,64.47 -22.23,80.57 -28.38,16.11 -64.46,6.16 -80.57,-22.23l-1157.35 -2046.55c-22.37,-27.45 -195.28,-223.47 -366.09,54.69 -226.81,369.35 -804.95,1538.57 -806.61,1541.95l-1.1 2.12c-10.85,24.02 -91.37,227.17 258.84,291.39 443.61,81.36 829.83,139.92 830.94,140.09 32.35,4.85 54.64,35.02 49.77,67.37 -4.85,32.35 -35.02,54.64 -67.37,49.78 -1.1,-0.17 -379.74,-57.59 -834.64,-141.02 -495.02,-90.78 -362.49,-418.01 -344.38,-457.83 0.57,-1.42 1.2,-2.84 1.89,-4.23 1.67,-3.38 582.24,-1177.5 811.72,-1551.2 265.55,-432.44 545.39,-84.87 562.19,-63.32 2,2.48 3.83,5.14 5.45,8l1159.54 2050.41z"/>
   <path class="fil0" d="M16537.76 999.07c-32.22,5.24 -62.6,-16.63 -67.84,-48.85 -5.25,-32.22 16.63,-62.6 48.85,-67.84l1278.51 -208.55c157.4,-25.68 320.86,60.04 430.25,169.43 155.26,155.26 402.55,565.91 423.94,601.61 24.48,33.3 92.06,160.35 8,474.07 -89.49,333.97 -658.17,1614.42 -695.71,1698.8 -10.06,33.45 -68.73,184.87 -307.54,184.87 -220.11,0 -1258.06,-62.02 -1261.05,-62.19 -15.05,-0.89 -28.45,-7.33 -38.34,-17.23l-217.68 -217.49c-86.18,-86.17 -467.88,-495.81 -468.97,-496.99 -22.25,-23.9 -20.9,-61.33 3.01,-83.58 23.91,-22.24 61.34,-20.9 83.58,3.02 1.09,1.15 376.45,404.01 466.2,493.73l201.8 201.8c152.04,8.99 1029.49,60.38 1231.46,60.38 116.49,0 161.33,-28.8 207.31,-121.72 94.23,-190.5 642.72,-1528.96 681.58,-1673.97 32.08,-119.75 73.76,-267.76 6.48,-380.31 -142.08,-238.44 -418.33,-769.25 -743.09,-716.29l-1270.74 207.29z"/>
  </g>
 </g>
</svg>
