<?xml version="1.0" encoding="UTF-8"?>
<svg id="Capa_2" xmlns="http://www.w3.org/2000/svg" viewBox="0 0 245.6 208.19">
  <defs>
    <style>
      .cls-1 {
        fill: #104468;
      }

      .cls-2 {
        fill: #fff;
      }

      .cls-3 {
        opacity: .45;
      }

      .cls-4 {
        fill: #13568f;
      }
    </style>
  </defs>
  <g id="Capa_1-2" data-name="Capa_1">
    <path class="cls-4" d="M245.6,69.84c0,74.45-88.26,123.57-115.13,136.62-4.6,2.3-10.74,2.3-15.35,0C88.26,193.41,0,145.83,0,69.84,0,31.47,28.4,0,62.94,0c27.63,0,50.66,19.19,59.1,46.05C130.48,19.19,154.27,0,181.13,0c36.07,0,64.47,31.47,64.47,69.84Z"/>
    <path class="cls-1" d="M245.6,69.84c0,74.45-88.26,123.57-115.13,136.62-4.6,2.3-10.74,2.3-16.12,0-12.28-5.37-35.31-18.42-58.33-36.84h.77c72.91,0,131.24-59.1,131.24-131.24,0-13.05-2.3-26.1-6.14-38.38,36.07.77,63.7,31.47,63.7,69.84Z"/>
    <g class="cls-3">
      <path class="cls-2" d="M59.1,58.33c-12.28,3.07-23.79-1.53-26.1-9.98-1.53-9.21,6.14-18.42,18.42-21.49,12.28-3.07,23.79,1.53,26.1,9.98,2.3,9.21-6.14,18.42-18.42,21.49Z"/>
    </g>
  </g>
</svg>